<svg xmlns="http://www.w3.org/2000/svg" viewBox="0 0 900 520" role="img" aria-label="Kumar Harsh brand system map">
  <defs>
    <linearGradient id="g" x1="0" y1="0" x2="1" y2="1"><stop offset="0" stop-color="#63e6be"/><stop offset="1" stop-color="#7aa7ff"/></linearGradient>
    <filter id="shadow" x="-20%" y="-20%" width="140%" height="140%"><feDropShadow dx="0" dy="16" stdDeviation="18" flood-color="#000" flood-opacity=".35"/></filter>
  </defs>
  <rect width="900" height="520" rx="36" fill="#081625"/>
  <g opacity=".16"><circle cx="140" cy="70" r="120" fill="#63e6be"/><circle cx="790" cy="455" r="170" fill="#7aa7ff"/></g>
  <circle cx="450" cy="260" r="106" fill="url(#g)" filter="url(#shadow)"/>
  <text x="450" y="246" text-anchor="middle" font-family="Inter, Arial" font-size="24" font-weight="800" fill="#06101d">Kumar</text>
  <text x="450" y="282" text-anchor="middle" font-family="Inter, Arial" font-size="34" font-weight="900" fill="#06101d">Harsh</text>
  <g font-family="Inter, Arial" font-size="18" fill="#dce8f8" font-weight="700">
    <g><rect x="70" y="70" width="230" height="88" rx="20" fill="#10243c" stroke="#274466"/><text x="185" y="109" text-anchor="middle">UAV / UAS Testing</text><text x="185" y="136" text-anchor="middle" font-size="13" fill="#9fb2c9">qualification • evidence • safety</text></g>
    <g><rect x="600" y="70" width="230" height="88" rx="20" fill="#10243c" stroke="#274466"/><text x="715" y="109" text-anchor="middle">Controls & Robotics</text><text x="715" y="136" text-anchor="middle" font-size="13" fill="#9fb2c9">PID • MPC • EKF • ROS2</text></g>
    <g><rect x="70" y="360" width="230" height="88" rx="20" fill="#10243c" stroke="#274466"/><text x="185" y="399" text-anchor="middle">Certification Mindset</text><text x="185" y="426" text-anchor="middle" font-size="13" fill="#9fb2c9">TEP • ATP • reports • compliance</text></g>
    <g><rect x="600" y="360" width="230" height="88" rx="20" fill="#10243c" stroke="#274466"/><text x="715" y="399" text-anchor="middle">Data-Driven Engineering</text><text x="715" y="426" text-anchor="middle" font-size="13" fill="#9fb2c9">datasets • validation • thresholds</text></g>
  </g>
  <g stroke="url(#g)" stroke-width="3" fill="none" stroke-linecap="round" opacity=".85">
    <path d="M300 115 C350 120 370 160 390 190"/><path d="M600 115 C550 120 530 160 510 190"/>
    <path d="M300 405 C350 400 370 360 390 330"/><path d="M600 405 C550 400 530 360 510 330"/>
  </g>
</svg>
