<svg xmlns="http://www.w3.org/2000/svg" viewBox="0 0 980 420" role="img" aria-label="Certification evidence workflow">
  <defs><linearGradient id="g" x1="0" x2="1"><stop stop-color="#63e6be"/><stop offset="1" stop-color="#7aa7ff"/></linearGradient><marker id="a" markerWidth="10" markerHeight="10" refX="8" refY="3" orient="auto"><path d="M0,0 L0,6 L8,3 z" fill="#63e6be"/></marker></defs>
  <rect width="980" height="420" rx="32" fill="#081625"/>
  <text x="50" y="58" font-family="Inter,Arial" font-size="28" font-weight="900" fill="#edf4ff">Certification-Ready Engineering Workflow</text>
  <g font-family="Inter,Arial" font-weight="800" fill="#edf4ff">
    <rect x="50" y="126" width="150" height="92" rx="18" fill="#10243c" stroke="#274466"/><text x="125" y="165" text-anchor="middle">Requirement</text><text x="125" y="192" text-anchor="middle" font-size="13" fill="#9fb2c9">standard / safety case</text>
    <rect x="250" y="126" width="150" height="92" rx="18" fill="#10243c" stroke="#274466"/><text x="325" y="165" text-anchor="middle">Test Plan</text><text x="325" y="192" text-anchor="middle" font-size="13" fill="#9fb2c9">TEP / ATP</text>
    <rect x="450" y="126" width="150" height="92" rx="18" fill="#10243c" stroke="#274466"/><text x="525" y="165" text-anchor="middle">Execution</text><text x="525" y="192" text-anchor="middle" font-size="13" fill="#9fb2c9">dry run / campaign</text>
    <rect x="650" y="126" width="150" height="92" rx="18" fill="#10243c" stroke="#274466"/><text x="725" y="165" text-anchor="middle">Analysis</text><text x="725" y="192" text-anchor="middle" font-size="13" fill="#9fb2c9">thresholds / reports</text>
    <rect x="820" y="126" width="110" height="92" rx="18" fill="url(#g)"/><text x="875" y="165" text-anchor="middle" fill="#06101d">Evidence</text><text x="875" y="192" text-anchor="middle" font-size="13" fill="#06101d">submission</text>
  </g>
  <g stroke="#63e6be" stroke-width="4" marker-end="url(#a)"><line x1="205" y1="172" x2="243" y2="172"/><line x1="405" y1="172" x2="443" y2="172"/><line x1="605" y1="172" x2="643" y2="172"/><line x1="805" y1="172" x2="813" y2="172"/></g>
  <g fill="#9fb2c9" font-family="Inter,Arial" font-size="15"><text x="490" y="298" text-anchor="middle">The brand promise: make complex systems testable, traceable, and defensible.</text></g>
</svg>
