<svg xmlns="http://www.w3.org/2000/svg" viewBox="0 0 980 420" role="img" aria-label="Drone swarm sensor fusion architecture">
  <defs><linearGradient id="g" x1="0" x2="1"><stop stop-color="#63e6be"/><stop offset="1" stop-color="#7aa7ff"/></linearGradient><marker id="a" markerWidth="10" markerHeight="10" refX="8" refY="3" orient="auto"><path d="M0,0 L0,6 L8,3 z" fill="#63e6be"/></marker></defs>
  <rect width="980" height="420" rx="32" fill="#081625"/>
  <text x="50" y="58" font-family="Inter,Arial" font-size="28" font-weight="900" fill="#edf4ff">Human-Drone Interaction: Tracking + Swarm Behaviors</text>
  <circle cx="490" cy="214" r="72" fill="url(#g)"/><text x="490" y="207" text-anchor="middle" font-family="Inter,Arial" font-size="21" font-weight="900" fill="#06101d">EKF + PID</text><text x="490" y="235" text-anchor="middle" font-family="Inter,Arial" font-size="13" font-weight="800" fill="#06101d">state estimate + control</text>
  <g font-family="Inter,Arial" font-weight="800" fill="#edf4ff">
    <g><rect x="60" y="115" width="180" height="92" rx="18" fill="#10243c" stroke="#274466"/><text x="150" y="154" text-anchor="middle">IMU Dataset</text><text x="150" y="181" text-anchor="middle" font-size="13" fill="#9fb2c9">6DoF gestures</text></g>
    <g><rect x="60" y="245" width="180" height="92" rx="18" fill="#10243c" stroke="#274466"/><text x="150" y="284" text-anchor="middle">IR Camera</text><text x="150" y="311" text-anchor="middle" font-size="13" fill="#9fb2c9">position tracking</text></g>
    <g><rect x="740" y="115" width="180" height="92" rx="18" fill="#10243c" stroke="#274466"/><text x="830" y="154" text-anchor="middle">ROS → ROS2</text><text x="830" y="181" text-anchor="middle" font-size="13" fill="#9fb2c9">Crazyswarm platform</text></g>
    <g><rect x="740" y="245" width="180" height="92" rx="18" fill="#10243c" stroke="#274466"/><text x="830" y="284" text-anchor="middle">Auto Charging</text><text x="830" y="311" text-anchor="middle" font-size="13" fill="#9fb2c9">swarm operations</text></g>
  </g>
  <g stroke="#63e6be" stroke-width="4" marker-end="url(#a)"><line x1="245" y1="160" x2="410" y2="200"/><line x1="245" y1="290" x2="410" y2="230"/><line x1="565" y1="200" x2="735" y2="160"/><line x1="565" y1="230" x2="735" y2="290"/></g>
</svg>
