<svg xmlns="http://www.w3.org/2000/svg" viewBox="0 0 980 420" role="img" aria-label="NAO upper body control model predictive control diagram">
  <defs><linearGradient id="g" x1="0" y1="0" x2="1" y2="1"><stop stop-color="#63e6be"/><stop offset="1" stop-color="#7aa7ff"/></linearGradient></defs>
  <rect width="980" height="420" rx="32" fill="#081625"/>
  <text x="50" y="58" font-family="Inter,Arial" font-size="28" font-weight="900" fill="#edf4ff">NAO Upper Body Balance: COM + MPC</text>
  <g transform="translate(175 95)" stroke="#7aa7ff" stroke-width="12" stroke-linecap="round" fill="none">
    <circle cx="80" cy="45" r="35" fill="#10243c" stroke="#63e6be"/>
    <path d="M80 85 L80 185 M30 120 L130 120 M80 185 L40 260 M80 185 L125 260"/>
  </g>
  <circle cx="255" cy="210" r="10" fill="#ffd166"/><text x="285" y="216" font-family="Inter,Arial" fill="#ffd166" font-size="15" font-weight="800">COM estimate</text>
  <g font-family="Inter,Arial" fill="#edf4ff" font-weight="800">
    <rect x="450" y="115" width="190" height="82" rx="18" fill="#10243c" stroke="#274466"/><text x="545" y="150" text-anchor="middle">Analytical COM</text><text x="545" y="176" text-anchor="middle" font-size="13" fill="#9fb2c9">target coordinates</text>
    <rect x="450" y="225" width="190" height="82" rx="18" fill="#10243c" stroke="#274466"/><text x="545" y="260" text-anchor="middle">C++ MPC Library</text><text x="545" y="286" text-anchor="middle" font-size="13" fill="#9fb2c9">comparison baseline</text>
    <rect x="720" y="170" width="190" height="82" rx="18" fill="url(#g)"/><text x="815" y="205" text-anchor="middle" fill="#06101d">Walking + Kicking</text><text x="815" y="231" text-anchor="middle" font-size="13" fill="#06101d">dynamic upper body balance</text>
  </g>
  <g stroke="#63e6be" stroke-width="4" fill="none" stroke-linecap="round"><path d="M340 210 C390 190 410 155 445 155"/><path d="M640 155 C690 160 700 194 715 205"/><path d="M640 266 C690 260 700 228 715 218"/></g>
</svg>
