<svg xmlns="http://www.w3.org/2000/svg" viewBox="0 0 980 420" role="img" aria-label="SINDYc MPC workflow">
  <defs><linearGradient id="g" x1="0" x2="1"><stop stop-color="#63e6be"/><stop offset="1" stop-color="#7aa7ff"/></linearGradient><marker id="a" markerWidth="10" markerHeight="10" refX="7" refY="3" orient="auto"><path d="M0,0 L0,6 L8,3 z" fill="#63e6be"/></marker></defs>
  <rect width="980" height="420" rx="32" fill="#081625"/>
  <text x="48" y="55" font-family="Inter,Arial" font-size="28" font-weight="900" fill="#edf4ff">Nonlinear System Identification + MPC</text>
  <g font-family="Inter,Arial" font-weight="800" fill="#edf4ff">
    <g><rect x="50" y="120" width="155" height="104" rx="18" fill="#10243c" stroke="#244466"/><text x="128" y="163" text-anchor="middle">evoBot</text><text x="128" y="192" text-anchor="middle" font-size="13" fill="#9fb2c9">input/output data</text></g>
    <g><rect x="258" y="120" width="155" height="104" rx="18" fill="#10243c" stroke="#244466"/><text x="336" y="163" text-anchor="middle">Sparse Library</text><text x="336" y="192" text-anchor="middle" font-size="13" fill="#9fb2c9">candidate dynamics</text></g>
    <g><rect x="466" y="120" width="155" height="104" rx="18" fill="#10243c" stroke="#244466"/><text x="544" y="163" text-anchor="middle">SINDYc</text><text x="544" y="192" text-anchor="middle" font-size="13" fill="#9fb2c9">model discovery</text></g>
    <g><rect x="674" y="120" width="155" height="104" rx="18" fill="#10243c" stroke="#244466"/><text x="752" y="163" text-anchor="middle">MPC</text><text x="752" y="192" text-anchor="middle" font-size="13" fill="#9fb2c9">prediction & control</text></g>
  </g>
  <g stroke="#63e6be" stroke-width="4" marker-end="url(#a)"><line x1="210" y1="172" x2="250" y2="172"/><line x1="418" y1="172" x2="458" y2="172"/><line x1="626" y1="172" x2="666" y2="172"/></g>
  <path d="M760 225 C760 298 210 300 145 224" stroke="#7aa7ff" stroke-width="3" fill="none" stroke-dasharray="8 10" marker-end="url(#a)"/>
  <g font-family="Inter,Arial" fill="#9fb2c9" font-size="15"><text x="480" y="310" text-anchor="middle">Closed-loop validation: compare identified dynamics, controller response, and tracking behavior</text><text x="480" y="342" text-anchor="middle">Outcome: compact model suitable for predictive control experiments</text></g>
</svg>
